ffmpeg version 6.1.1-3ubuntu5 Copyright (c) 2000-2023 the FFmpeg developers
  built with gcc 13 (Ubuntu 13.2.0-23ubuntu3)
  configuration: --prefix=/usr --extra-version=3ubuntu5 --toolchain=hardened --libdir=/usr/lib/x86_64-linux-gnu --incdir=/usr/include/x86_64-linux-gnu --arch=amd64 --enable-gpl --disable-stripping --disable-omx --enable-gnutls --enable-libaom --enable-libass --enable-libbs2b --enable-libcaca --enable-libcdio --enable-libcodec2 --enable-libdav1d --enable-libflite --enable-libfontconfig --enable-libfreetype --enable-libfribidi --enable-libglslang --enable-libgme --enable-libgsm --enable-libharfbuzz --enable-libmp3lame --enable-libmysofa --enable-libopenjpeg --enable-libopenmpt --enable-libopus --enable-librubberband --enable-libshine --enable-libsnappy --enable-libsoxr --enable-libspeex --enable-libtheora --enable-libtwolame --enable-libvidstab --enable-libvorbis --enable-libvpx --enable-libwebp --enable-libx265 --enable-libxml2 --enable-libxvid --enable-libzimg --enable-openal --enable-opencl --enable-opengl --disable-sndio --enable-libvpl --disable-libmfx --enable-libdc1394 --enable-libdrm --enable-libiec61883 --enable-chromaprint --enable-frei0r --enable-ladspa --enable-libbluray --enable-libjack --enable-libpulse --enable-librabbitmq --enable-librist --enable-libsrt --enable-libssh --enable-libsvtav1 --enable-libx264 --enable-libzmq --enable-libzvbi --enable-lv2 --enable-sdl2 --enable-libplacebo --enable-librav1e --enable-pocketsphinx --enable-librsvg --enable-libjxl --enable-shared
  libavutil      58. 29.100 / 58. 29.100
  libavcodec     60. 31.102 / 60. 31.102
  libavformat    60. 16.100 / 60. 16.100
  libavdevice    60.  3.100 / 60.  3.100
  libavfilter     9. 12.100 /  9. 12.100
  libswscale      7.  5.100 /  7.  5.100
  libswresample   4. 12.100 /  4. 12.100
  libpostproc    57.  3.100 / 57.  3.100
Routing option strict to both codec and muxer layer
[Parsed_scale_0 @ 0x5999642661c0] w:1280 h:720 flags:'' interl:0
[Parsed_scale_2 @ 0x599964273880] w:1280 h:720 flags:'' interl:0
-vsync is deprecated. Use -fps_mode
Passing a number to -vsync is deprecated, use a string argument as described in the manual.
Input #0, mov,mp4,m4a,3gp,3g2,mj2, from '/var/www/html/project/media/video/original/112343.mp4':
  Metadata:
    major_brand     : mp42
    minor_version   : 0
    compatible_brands: isommp42
    creation_time   : 2026-02-22T20:57:47.000000Z
    com.android.version: 16
    com.samsung.android.utc_offset: +0100
  Duration: 00:00:45.67, start: 0.000000, bitrate: 11068 kb/s
  Stream #0:0[0x1](eng): Video: hevc (Main), 1 reference frame (hvc1 / 0x31637668), yuv420p(tv, bt709, left), 1920x1080 (1920x1088), 10936 kb/s, 30 fps, 30 tbr, 90k tbn (default)
    Metadata:
      creation_time   : 2026-02-22T20:57:47.000000Z
      handler_name    : VideoHandle
      vendor_id       : [0][0][0][0]
  Stream #0:1[0x2](eng): Audio: aac (LC) (mp4a / 0x6134706D), 48000 Hz, stereo, fltp, 128 kb/s (default)
    Metadata:
      creation_time   : 2026-02-22T20:57:47.000000Z
      handler_name    : SoundHandle
      vendor_id       : [0][0][0][0]
Input #1, png_pipe, from '/var/www/html/project/static/images/templates/logo.png':
  Duration: N/A, bitrate: N/A
  Stream #1:0: Video: png, 1 reference frame, rgba(pc, gbr/unknown/unknown), 1920x1080 [SAR 2835:2835 DAR 16:9], 25 fps, 25 tbr, 25 tbn
[out#0/mp4 @ 0x5999657119c0] Creating output stream from unlabeled output of complex filtergraph 0. This overrides automatic video mapping.
[vost#0:0/libx264 @ 0x599965712740] Created video stream from complex filtergraph 0:[overlay:default]
[vost#0:0/libx264 @ 0x599965712740] 
[out#0/mp4 @ 0x5999657119c0] No explicit maps, mapping streams automatically...
[aost#0:1/aac @ 0x599965714300] Created audio stream from input stream 0:1
Stream mapping:
  Stream #0:0 (hevc) -> scale:default (graph 0)
  Stream #1:0 (png) -> scale:default (graph 0)
  overlay:default (graph 0) -> Stream #0:0 (libx264)
  Stream #0:1 -> #0:1 (aac (native) -> aac (native))
Press [q] to stop, [?] for help
[graph_1_in_0_1 @ 0x599964280f40] tb:1/48000 samplefmt:fltp samplerate:48000 chlayout:stereo
[in#1/png_pipe @ 0x5999642b1300] EOF while reading input
[in#1/png_pipe @ 0x5999642b1300] Terminating demuxer thread
[vist#1:0/png @ 0x5999642af680] Decoder thread received EOF packet
[vist#1:0/png @ 0x5999642af680] Decoder returned EOF, finishing
[vist#1:0/png @ 0x5999642af680] Terminating decoder thread
[Parsed_scale_0 @ 0x5999642d65c0] w:1280 h:720 flags:'' interl:0
[Parsed_scale_2 @ 0x599965921340] w:1280 h:720 flags:'' interl:0
[graph 0 input from stream 0:0 @ 0x59996591f400] w:1920 h:1080 pixfmt:yuv420p tb:1/90000 fr:30/1 sar:0/1
[graph 0 input from stream 1:0 @ 0x59996591ee40] w:1920 h:1080 pixfmt:rgba tb:1/25 fr:25/1 sar:2835/2835
[Parsed_scale_0 @ 0x5999642d65c0] w:1920 h:1080 fmt:yuv420p sar:0/1 -> w:1280 h:720 fmt:yuv420p sar:0/1 flags:0x00000004
[Parsed_setsar_1 @ 0x599965921980] w:1280 h:720 sar:0/1 dar:16/9 -> sar:1/1 dar:16/9
[Parsed_scale_2 @ 0x599965921340] w:1920 h:1080 fmt:rgba sar:2835/2835 -> w:1280 h:720 fmt:yuva420p sar:1/1 flags:0x00000004
[Parsed_setsar_3 @ 0x599965920f00] w:1280 h:720 sar:1/1 dar:16/9 -> sar:1/1 dar:16/9
[Parsed_overlay_4 @ 0x599965920b40] main w:1280 h:720 fmt:yuv420p overlay w:1280 h:720 fmt:yuva420p
[Parsed_overlay_4 @ 0x599965920b40] [framesync @ 0x5999642d68e8] Selected 1/90000 time base
[Parsed_overlay_4 @ 0x599965920b40] [framesync @ 0x5999642d68e8] Sync level 2
[Parsed_scale_0 @ 0x5999642d65c0] w:1920 h:1080 fmt:yuv420p sar:0/1 -> w:1280 h:720 fmt:yuv420p sar:0/1 flags:0x00000004
    Last message repeated 2 times
[Parsed_scale_2 @ 0x599965921340] w:1920 h:1080 fmt:rgba sar:2835/2835 -> w:1280 h:720 fmt:yuva420p sar:1/1 flags:0x00000004
    Last message repeated 2 times
[libx264 @ 0x599965712b40] using SAR=1/1
[libx264 @ 0x599965712b40] using cpu capabilities: MMX2 SSE2Fast SSSE3 SSE4.2 AVX FMA3 BMI2 AVX2
[libx264 @ 0x599965712b40] profile High, level 3.1, 4:2:0, 8-bit
[libx264 @ 0x599965712b40] 264 - core 164 r3108 31e19f9 - H.264/MPEG-4 AVC codec - Copyleft 2003-2023 - http://www.videolan.org/x264.html - options: cabac=1 ref=1 deblock=1:0:0 analyse=0x3:0x113 me=hex subme=2 psy=1 psy_rd=1.00:0.00 mixed_ref=0 me_range=16 chroma_me=1 trellis=0 8x8dct=1 cqm=0 deadzone=21,11 fast_pskip=1 chroma_qp_offset=0 threads=22 lookahead_threads=5 sliced_threads=0 nr=0 decimate=1 interlaced=0 bluray_compat=0 constrained_intra=0 bframes=3 b_pyramid=2 b_adapt=1 b_bias=0 direct=1 weightb=1 open_gop=0 weightp=1 keyint=250 keyint_min=25 scenecut=40 intra_refresh=0 rc_lookahead=10 rc=crf mbtree=1 crf=18.0 qcomp=0.60 qpmin=0 qpmax=69 qpstep=4 ip_ratio=1.40 aq=1:1.00
Output #0, mp4, to '/var/www/html/project/media/video/watermarks/112343.mp4':
  Metadata:
    major_brand     : mp42
    minor_version   : 0
    compatible_brands: isommp42
    com.samsung.android.utc_offset: +0100
    com.android.version: 16
    encoder         : Lavf60.16.100
  Stream #0:0: Video: h264, 1 reference frame (avc1 / 0x31637661), yuv420p(tv, bt709, progressive, left), 1280x720 (0x0) [SAR 1:1 DAR 16:9], q=2-31, 30 fps, 15360 tbn
    Metadata:
      encoder         : Lavc60.31.102 libx264
    Side data:
      cpb: bitrate max/min/avg: 0/0/0 buffer size: 0 vbv_delay: N/A
  Stream #0:1(eng): Audio: aac (LC) (mp4a / 0x6134706D), 48000 Hz, stereo, fltp, delay 1024, 128 kb/s (default)
    Metadata:
      creation_time   : 2026-02-22T20:57:47.000000Z
      handler_name    : SoundHandle
      vendor_id       : [0][0][0][0]
      encoder         : Lavc60.31.102 aac
[in#0/mov,mp4,m4a,3gp,3g2,mj2 @ 0x59996427bd80] EOF while reading input
[in#0/mov,mp4,m4a,3gp,3g2,mj2 @ 0x59996427bd80] Terminating demuxer thread
[vist#0:0/hevc @ 0x5999642b74c0] Decoder thread received EOF packet
[vist#0:0/hevc @ 0x5999642b74c0] Decoder returned EOF, finishing
[vist#0:0/hevc @ 0x5999642b74c0] Terminating decoder thread
[Parsed_overlay_4 @ 0x599965920b40] [framesync @ 0x5999642d68e8] Sync level 0
[aist#0:1/aac @ 0x5999642bc680] Decoder thread received EOF packet
[aist#0:1/aac @ 0x5999642bc680] Decoder returned EOF, finishing
[aist#0:1/aac @ 0x5999642bc680] Terminating decoder thread
No more output streams to write to, finishing.
[out#0/mp4 @ 0x5999657119c0] All streams finished
[out#0/mp4 @ 0x5999657119c0] Terminating muxer thread
[AVIOContext @ 0x599965878640] Statistics: 22758413 bytes written, 2 seeks, 90 writeouts
[out#0/mp4 @ 0x5999657119c0] Output file #0 (/var/www/html/project/media/video/watermarks/112343.mp4):
[out#0/mp4 @ 0x5999657119c0]   Output stream #0:0 (video): 1370 frames encoded; 1370 packets muxed (21971068 bytes); 
[out#0/mp4 @ 0x5999657119c0]   Output stream #0:1 (audio): 2139 frames encoded (2190336 samples); 2140 packets muxed (735828 bytes); 
[out#0/mp4 @ 0x5999657119c0]   Total: 3510 packets (22706896 bytes) muxed
[out#0/mp4 @ 0x5999657119c0] video:21456kB audio:719kB subtitle:0kB other streams:0kB global headers:0kB muxing overhead: 0.226861%
frame= 1370 fps= 85 q=-1.0 Lsize=   22225kB time=00:00:45.60 bitrate=3991.8kbits/s speed=2.84x    
[AVIOContext @ 0x5999642736c0] Statistics: 6482 bytes written, 0 seeks, 32 writeouts
[libx264 @ 0x599965712b40] frame I:9     Avg QP:15.16  size: 89066
[libx264 @ 0x599965712b40] frame P:458   Avg QP:18.18  size: 30563
[libx264 @ 0x599965712b40] frame B:903   Avg QP:19.55  size:  7941
[libx264 @ 0x599965712b40] consecutive B-frames:  8.4%  8.5%  8.1% 75.0%
[libx264 @ 0x599965712b40] mb I  I16..4: 24.0% 24.7% 51.3%
[libx264 @ 0x599965712b40] mb P  I16..4: 13.6% 16.3%  5.3%  P16..4: 27.5% 14.5% 10.2%  0.0%  0.0%    skip:12.6%
[libx264 @ 0x599965712b40] mb B  I16..4:  3.6%  3.5%  0.4%  B16..8: 20.0%  6.9%  1.0%  direct:12.2%  skip:52.5%  L0:36.7% L1:44.7% BI:18.6%
[libx264 @ 0x599965712b40] 8x8 transform intra:45.6% inter:35.3%
[libx264 @ 0x599965712b40] coded y,uvDC,uvAC intra: 51.2% 37.1% 11.8% inter: 18.2% 15.6% 0.7%
[libx264 @ 0x599965712b40] i16 v,h,dc,p: 50% 22% 20%  8%
[libx264 @ 0x599965712b40] i8 v,h,dc,ddl,ddr,vr,hd,vl,hu: 18% 22% 28%  5%  5%  5%  6%  5%  6%
[libx264 @ 0x599965712b40] i4 v,h,dc,ddl,ddr,vr,hd,vl,hu: 19% 22% 13%  7%  9%  8% 10%  6%  7%
[libx264 @ 0x599965712b40] i8c dc,h,v,p: 67% 15% 13%  4%
[libx264 @ 0x599965712b40] Weighted P-Frames: Y:2.6% UV:1.1%
[libx264 @ 0x599965712b40] kb/s:3848.83
[aac @ 0x599965714700] Qavg: 1141.848
[in#0/mov,mp4,m4a,3gp,3g2,mj2 @ 0x59996427bd80] Input file #0 (/var/www/html/project/media/video/original/112343.mp4):
[in#0/mov,mp4,m4a,3gp,3g2,mj2 @ 0x59996427bd80]   Input stream #0:0 (video): 1370 packets read (62430971 bytes); 1370 frames decoded; 0 decode errors; 
[in#0/mov,mp4,m4a,3gp,3g2,mj2 @ 0x59996427bd80]   Input stream #0:1 (audio): 2139 packets read (730371 bytes); 2139 frames decoded; 0 decode errors (2190336 samples); 
[in#0/mov,mp4,m4a,3gp,3g2,mj2 @ 0x59996427bd80]   Total: 3509 packets (63161342 bytes) demuxed
[AVIOContext @ 0x59996427c140] Statistics: 106617576 bytes read, 2450 seeks
[in#1/png_pipe @ 0x5999642b1300] Input file #1 (/var/www/html/project/static/images/templates/logo.png):
[in#1/png_pipe @ 0x5999642b1300]   Input stream #1:0 (video): 1 packets read (111578 bytes); 1 frames decoded; 0 decode errors; 
[in#1/png_pipe @ 0x5999642b1300]   Total: 1 packets (111578 bytes) demuxed
[AVIOContext @ 0x599964271500] Statistics: 111578 bytes read, 0 seeks
